# xmcd CD Database Entry
#
# Track frame offsets:
# 150
# 24568
# 51135
# 71010
# 95390
# 115035
# 137610
# 168403
# 193673
# 210090
# 224688
# 239795
#
# Disc length: 3500 seconds
#
# Revision: 3
# Processed by: cddbd v1.5.1PL0 Copyright (c) Steve Scherf et al.
# Submitted via: tcd 2.0b
#
DISCID=ad0daa0c
DTITLE=Linda Perry - In Flight
DYEAR=1900
DGENRE=
TTITLE0=In My Dreams
TTITLE1=Freeway
TTITLE2=Uninvited
TTITLE3=Success
TTITLE4=Life In A Bottle
TTITLE5=Fill Me Up
TTITLE6=Knock Me Out
TTITLE7=Too Deep
TTITLE8=Taken
TTITLE9=Fruitloop Daydream
TTITLE10=Machine Man
TTITLE11=In Flight
EXTD=
EXTT0=
EXTT1=
EXTT2=
EXTT3=
EXTT4=
EXTT5=
EXTT6=
EXTT7=
EXTT8=
EXTT9=
EXTT10=
EXTT11=
PLAYORDER=
